<svg width="105" height="105" viewBox="0 0 105 105" fill="none" xmlns="http://www.w3.org/2000/svg">
<g id="adobe-illustrator-svgrepo-com 1">
<path id="Vector" d="M6.5625 39.8124C6.5625 28.1739 6.5625 22.3546 8.82751 17.9093C10.8199 13.999 13.999 10.8199 17.9093 8.82751C22.3546 6.5625 28.1739 6.5625 39.8124 6.5625H65.1876C76.8262 6.5625 82.6455 6.5625 87.0906 8.82751C91.0009 10.8199 94.1801 13.999 96.1725 17.9093C98.4375 22.3546 98.4375 28.1739 98.4375 39.8124V65.1876C98.4375 76.8262 98.4375 82.6455 96.1725 87.0906C94.1801 91.0009 91.0009 94.1801 87.0906 96.1725C82.6455 98.4375 76.8262 98.4375 65.1876 98.4375H39.8124C28.1739 98.4375 22.3546 98.4375 17.9093 96.1725C13.999 94.1801 10.8199 91.0009 8.82751 87.0906C6.5625 82.6455 6.5625 76.8262 6.5625 65.1876V39.8124Z" fill="#330000"/>
<path id="Vector_2" d="M51.0845 64.3004H36.8474L33.9508 73.5295C33.8704 73.8724 33.5547 74.1152 33.2112 74.0982H26.0001C25.5889 74.0982 25.4451 73.8665 25.5687 73.4029L37.8951 36.9922C38.0185 36.6129 38.1419 36.181 38.2649 35.6964C38.4264 34.8528 38.5087 33.9957 38.5117 33.1364C38.4763 32.8824 38.6994 32.6581 38.9429 32.6937H48.7426C49.0297 32.6937 49.1938 32.7991 49.2355 33.0097L63.2264 73.4662C63.3494 73.8879 63.2264 74.0985 62.8566 74.0982H54.8441C54.5632 74.1303 54.2948 73.9377 54.2279 73.6559L51.0845 64.3004ZM39.0662 56.3355H48.8043C47.2044 50.8682 45.3987 45.4729 43.9353 39.9633C42.3563 45.4824 40.6337 50.9792 39.0662 56.3355Z" fill="#FF9A00"/>
<path id="Vector_3" d="M71.546 39.394C70.9173 39.42 70.2906 39.3094 69.7062 39.0698C69.1222 38.8303 68.5939 38.4668 68.1562 38.0034C67.7198 37.5198 67.3805 36.9528 67.1583 36.3343C66.9362 35.7161 66.8355 35.0589 66.8617 34.4003C66.8394 33.7483 66.9513 33.099 67.1902 32.4944C67.4294 31.8899 67.79 31.3438 68.2487 30.8919C68.7028 30.4447 69.239 30.0944 69.8263 29.8611C70.4133 29.6278 71.0397 29.5163 71.6691 29.5329C73.1486 29.5329 74.3092 29.9859 75.1515 30.8919C75.5767 31.3628 75.9071 31.915 76.124 32.517C76.3406 33.119 76.4397 33.7591 76.4147 34.4003C76.4407 35.0611 76.3367 35.721 76.1089 36.3398C75.8815 36.9587 75.5347 37.5244 75.0898 38.0034C74.6248 38.4736 74.0696 38.8398 73.46 39.0794C72.85 39.3186 72.1983 39.4259 71.546 39.394ZM67.2932 73.4659V43.2502C67.2932 42.8708 67.4569 42.6812 67.7864 42.6812H75.3674C75.6955 42.6812 75.8599 42.8708 75.8602 43.2502V73.4659C75.8602 73.8879 75.6958 74.0985 75.3674 74.0982H67.8481C67.4783 74.0982 67.2932 73.8875 67.2932 73.4659Z" fill="#FF9A00"/>
</g>
</svg>
