<svg width="26" height="26" viewBox="0 0 26 26" fill="none" xmlns="http://www.w3.org/2000/svg">
<g id="behance-color-svgrepo-com 1" clip-path="url(#clip0_6_267)">
<g id="Icons">
<g id="Color-">
<path id="Behance" fill-rule="evenodd" clip-rule="evenodd" d="M16.6139 7.5866H23.4991V5.61398H16.6139V7.5866ZM18.245 11.8908C17.8062 12.3372 17.5296 12.9419 17.4164 13.705H22.7715C22.7149 12.8907 22.4367 12.2753 21.9444 11.8516C21.4461 11.4308 20.8331 11.2212 20.0993 11.2212C19.3044 11.2212 18.6837 11.4444 18.245 11.8908ZM22.8922 9.24252C23.7223 9.60748 24.4056 10.1866 24.9437 10.9769C25.4345 11.6736 25.7493 12.482 25.893 13.4004C25.9771 13.9373 26.0108 14.7155 25.997 15.7274H17.34C17.392 16.9023 17.8017 17.7272 18.5843 18.1992C19.0582 18.4933 19.6284 18.6411 20.298 18.6411C21.0027 18.6411 21.5791 18.4617 22.0209 18.1042C22.2639 17.9097 22.478 17.6412 22.6614 17.2974H25.8334C25.7494 17.9911 25.3641 18.6984 24.6823 19.4163C23.6184 20.5549 22.1279 21.125 20.2124 21.125C18.6302 21.125 17.2345 20.6454 16.0284 19.6832C14.8161 18.7226 14.2138 17.1571 14.2138 14.9915C14.2138 12.96 14.7596 11.4021 15.8495 10.3178C16.9426 9.23649 18.3566 8.69206 20.0978 8.69206C21.1327 8.69206 22.0637 8.87604 22.8922 9.24252ZM3.20262 13.7473V17.9745H7.10385C7.80094 17.9745 8.34517 17.881 8.73193 17.6955C9.43666 17.3487 9.78825 16.6911 9.78825 15.7169C9.78825 14.8904 9.44888 14.3249 8.76555 14.0157C8.38338 13.8438 7.84681 13.7533 7.1589 13.7473H3.20262ZM3.20262 7.62732V11.1247H7.10997C7.80553 11.1247 8.37268 10.9934 8.80989 10.731C9.24403 10.4686 9.46264 10.0041 9.46264 9.34054C9.46264 8.60006 9.17524 8.11294 8.60045 7.87466C8.10209 7.71027 7.46922 7.62732 6.70028 7.62732H3.20262ZM11.9284 6.5641C12.4191 7.23823 12.6653 8.04356 12.6653 8.98312C12.6653 9.94983 12.4191 10.7295 11.9223 11.3177C11.6441 11.6465 11.2359 11.9481 10.6963 12.2195C11.5157 12.5151 12.1333 12.9812 12.5536 13.6191C12.9695 14.2555 13.1789 15.0307 13.1789 15.9416C13.1789 16.8812 12.9404 17.7242 12.4619 18.4692C12.1593 18.9624 11.7801 19.3786 11.3246 19.7164C10.8125 20.104 10.2086 20.3679 9.51001 20.5127C8.8114 20.656 8.05622 20.7253 7.2399 20.7253H0V4.875H7.76424C9.72403 4.90365 11.1105 5.46618 11.9284 6.5641Z" fill="#1769FF"/>
</g>
</g>
</g>
<defs>
<clipPath id="clip0_6_267">
<rect width="26" height="26" fill="white"/>
</clipPath>
</defs>
</svg>
