<svg width="26" height="26" viewBox="0 0 26 26" fill="none" xmlns="http://www.w3.org/2000/svg">
<g id="dribbble-color-svgrepo-com 1" clip-path="url(#clip0_6_271)">
<g id="Icons">
<g id="Color-">
<path id="Dribbble" fill-rule="evenodd" clip-rule="evenodd" d="M19.2046 22.2075C19.0914 21.538 18.4998 18.279 17.0429 14.2787C20.6279 13.7054 23.7328 14.6883 23.9621 14.7632C23.4683 17.8571 21.6965 20.5245 19.2046 22.2075ZM13.0008 24.103C10.3132 24.103 7.84877 23.1476 5.92709 21.5579C6.07385 21.6771 6.17627 21.752 6.17627 21.752C6.17627 21.752 8.30434 17.1112 14.8888 14.8167C14.9133 14.8076 14.9393 14.8015 14.9637 14.7938C16.5262 18.8523 17.1698 22.2519 17.3349 23.2225C16.0033 23.7881 14.5372 24.103 13.0008 24.103ZM1.89722 12.9992C1.89722 12.8815 1.90334 12.7654 1.9064 12.6492C2.10361 12.6538 7.58888 12.7776 13.305 11.0671C13.623 11.6892 13.9272 12.3236 14.2054 12.9549C14.0587 12.9946 13.9134 13.039 13.7682 13.0879C7.77691 15.0231 4.7377 20.413 4.7377 20.413C4.7377 20.413 4.74229 20.4175 4.74229 20.4191C2.97348 18.4518 1.89722 15.8516 1.89722 12.9992ZM8.26306 2.96091C8.41135 3.1581 10.4645 5.94168 12.3862 9.35657C7.05535 10.7736 2.42771 10.717 2.13571 10.7124C2.85577 7.27309 5.16575 4.42225 8.26306 2.96091ZM10.3407 2.22106C10.3407 2.22259 10.3392 2.22412 10.3392 2.22412C10.3392 2.22412 10.3254 2.22717 10.3055 2.23023C10.3178 2.22717 10.3284 2.22564 10.3407 2.22106ZM20.3328 4.66988C20.3053 4.71115 18.7245 7.1187 14.5326 8.68858C12.6354 5.20184 10.5501 2.43201 10.3835 2.21189C11.2228 2.00859 12.0988 1.89853 13.0008 1.89853C15.8107 1.89853 18.3775 2.94715 20.3328 4.66988ZM24.0997 12.8892C23.9392 12.854 20.1815 12.0454 16.3672 12.5254C16.2877 12.3358 16.2097 12.1447 16.1271 11.9537C15.8963 11.4095 15.6471 10.8714 15.3887 10.3425C19.7733 8.55253 21.5528 5.9799 21.5742 5.94932C23.1305 7.8402 24.0737 10.2554 24.0997 12.8892ZM25.7371 10.3838C25.5658 9.54918 25.309 8.72527 24.9772 7.93956C24.6531 7.16915 24.248 6.42625 23.7787 5.73226C23.3154 5.04439 22.7804 4.39626 22.1933 3.80927C21.6048 3.22076 20.9581 2.68728 20.2686 2.22259C19.5745 1.75178 18.8316 1.34976 18.061 1.02264C17.2753 0.692459 16.4527 0.435655 15.618 0.265981C14.7619 0.0901918 13.8813 0 13.0008 0C12.1187 0 11.2381 0.0901918 10.382 0.265981C9.54726 0.435655 8.72475 0.692459 7.93895 1.02264C7.16845 1.34976 6.42546 1.75178 5.72986 2.22259C5.04191 2.68728 4.39524 3.22076 3.80666 3.80927C3.21961 4.39626 2.68608 5.04439 2.22133 5.73226C1.752 6.42625 1.34687 7.16915 1.02277 7.93956C0.689492 8.72527 0.434168 9.54918 0.262945 10.3838C0.0886639 11.2383 0 12.1188 0 12.9992C0 13.8828 0.0886639 14.7632 0.262945 15.6193C0.434168 16.4539 0.689492 17.2763 1.02277 18.0604C1.34687 18.8309 1.752 19.5768 2.22133 20.2708C2.68608 20.9587 3.21961 21.6037 3.80666 22.1938C4.39524 22.7808 5.04191 23.3127 5.72986 23.7789C6.42546 24.2482 7.16845 24.6518 7.93895 24.9774C8.72475 25.3106 9.54726 25.5643 10.382 25.734C11.2381 25.9113 12.1187 26 13.0008 26C13.8813 26 14.7619 25.9113 15.618 25.734C16.4527 25.5643 17.2753 25.3106 18.061 24.9774C18.8316 24.6518 19.5745 24.2482 20.2686 23.7789C20.9581 23.3127 21.6048 22.7808 22.1933 22.1938C22.7804 21.6037 23.3154 20.9587 23.7787 20.2708C24.248 19.5768 24.6531 18.8309 24.9772 18.0604C25.309 17.2763 25.5658 16.4539 25.7371 15.6193C25.9113 14.7632 26 13.8828 26 12.9992C26 12.1188 25.9113 11.2383 25.7371 10.3838Z" fill="#EC4989"/>
</g>
</g>
</g>
<defs>
<clipPath id="clip0_6_271">
<rect width="26" height="26" fill="white"/>
</clipPath>
</defs>
</svg>
