<svg width="105" height="105" viewBox="0 0 105 105" fill="none" xmlns="http://www.w3.org/2000/svg">
<g id="figma-svgrepo-com 1">
<path id="Vector" fill-rule="evenodd" clip-rule="evenodd" d="M52.5 52.5C52.5 45.2514 58.3764 39.375 65.625 39.375C72.8736 39.375 78.75 45.2514 78.75 52.5C78.75 59.7486 72.8736 65.625 65.625 65.625C58.3764 65.625 52.5 59.7486 52.5 52.5Z" fill="#1ABCFE"/>
<path id="Vector_2" fill-rule="evenodd" clip-rule="evenodd" d="M26.25 78.75C26.25 71.5014 32.1263 65.625 39.375 65.625H52.5V78.75C52.5 85.9986 46.6236 91.875 39.375 91.875C32.1263 91.875 26.25 85.9986 26.25 78.75Z" fill="#0ACF83"/>
<path id="Vector_3" fill-rule="evenodd" clip-rule="evenodd" d="M52.5 13.125V39.375H65.625C72.8736 39.375 78.75 33.4986 78.75 26.25C78.75 19.0013 72.8736 13.125 65.625 13.125H52.5Z" fill="#FF7262"/>
<path id="Vector_4" fill-rule="evenodd" clip-rule="evenodd" d="M26.25 26.25C26.25 33.4986 32.1263 39.375 39.375 39.375H52.5V13.125H39.375C32.1263 13.125 26.25 19.0013 26.25 26.25Z" fill="#F24E1E"/>
<path id="Vector_5" fill-rule="evenodd" clip-rule="evenodd" d="M26.25 52.5C26.25 59.7486 32.1263 65.625 39.375 65.625H52.5V39.375H39.375C32.1263 39.375 26.25 45.2514 26.25 52.5Z" fill="#A259FF"/>
</g>
</svg>
