<svg width="26" height="26" viewBox="0 0 26 26" fill="none" xmlns="http://www.w3.org/2000/svg">
<g id="fiverr-svgrepo-com 1">
<path id="Vector" d="M20.3125 19.7709V8.93758H9.47915V8.2605C9.47915 7.14033 10.3902 6.22925 11.5104 6.22925H13.5416V2.16675H11.5104C9.89485 2.16875 8.34605 2.81142 7.20368 3.95378C6.06132 5.09615 5.41865 6.64495 5.41665 8.2605V8.93758H2.70831V13.0001H5.41665V19.7709H2.70831V23.8334H12.1875V19.7709H9.47915V13.0001H16.2879V19.7709H13.5416V23.8334H23.0208V19.7709H20.3125Z" fill="#4CD68B"/>
<path id="Vector_2" d="M18.2812 6.22925C19.4031 6.22925 20.3125 5.31983 20.3125 4.198C20.3125 3.07617 19.4031 2.16675 18.2812 2.16675C17.1594 2.16675 16.25 3.07617 16.25 4.198C16.25 5.31983 17.1594 6.22925 18.2812 6.22925Z" fill="#4CD68B"/>
</g>
</svg>
