<svg width="45" height="45" viewBox="0 0 45 45" fill="none" xmlns="http://www.w3.org/2000/svg">
<g id="print-svgrepo-com 1">
<g id="Page-1">
<g id="Icon-Set">
<path id="print" fill-rule="evenodd" clip-rule="evenodd" d="M42.1875 32.3438C42.1875 33.8962 40.9275 35.1562 39.375 35.1562H36.3628C35.737 32.7347 33.5559 30.9375 30.9375 30.9375H14.0625C11.4441 30.9375 9.26297 32.7347 8.63719 35.1562H5.625C4.0725 35.1562 2.8125 33.8962 2.8125 32.3438V29.5312C2.8125 27.9788 4.0725 26.7188 5.625 26.7188H39.375C40.9275 26.7188 42.1875 27.9788 42.1875 29.5312V32.3438ZM30.9375 39.375H14.0625C12.51 39.375 11.25 38.115 11.25 36.5625C11.25 35.01 12.51 33.75 14.0625 33.75H30.9375C32.49 33.75 33.75 35.01 33.75 36.5625C33.75 38.115 32.49 39.375 30.9375 39.375ZM11.25 8.4375C11.25 6.885 12.51 5.625 14.0625 5.625H30.9375C32.49 5.625 33.75 6.885 33.75 8.4375V23.9062H11.25V8.4375ZM39.375 23.9062H36.5625V8.4375C36.5625 5.33109 34.0439 2.8125 30.9375 2.8125H14.0625C10.9561 2.8125 8.4375 5.33109 8.4375 8.4375V23.9062H5.625C2.51859 23.9062 0 26.4248 0 29.5312V32.3438C0 35.4502 2.51859 37.9688 5.625 37.9688H8.63719C9.26297 40.3917 11.4441 42.1875 14.0625 42.1875H30.9375C33.5559 42.1875 35.737 40.3917 36.3628 37.9688H39.375C42.4814 37.9688 45 35.4502 45 32.3438V29.5312C45 26.4248 42.4814 23.9062 39.375 23.9062Z" fill="#10BF62"/>
</g>
</g>
</g>
</svg>
