<svg width="49" height="49" viewBox="0 0 49 49" fill="none" xmlns="http://www.w3.org/2000/svg">
<g id="feed-svgrepo-com 1">
<path id="Vector" d="M42.8035 14.2916C42.6449 10.469 42.1331 8.1253 40.483 6.47527C38.0912 4.08331 34.2412 4.08331 26.5417 4.08331H22.4583C14.7587 4.08331 10.9089 4.08331 8.51696 6.47527C6.125 8.86724 6.125 12.717 6.125 20.4166V28.5833C6.125 36.2828 6.125 40.1328 8.51696 42.5246C10.9089 44.9166 14.7587 44.9166 22.4583 44.9166H26.5417C34.2412 44.9166 38.0912 44.9166 40.483 42.5246C42.875 40.1328 42.875 36.2828 42.875 28.5833V22.4583" stroke="#10BF62" stroke-width="2" stroke-linecap="round"/>
<path id="Vector_2" d="M12.25 24.5C12.25 21.6127 12.25 20.169 13.147 19.272C14.044 18.375 15.4877 18.375 18.375 18.375H30.625C33.5123 18.375 34.956 18.375 35.8531 19.272C36.75 20.169 36.75 21.6127 36.75 24.5V32.6667C36.75 35.554 36.75 36.9977 35.8531 37.8948C34.956 38.7917 33.5123 38.7917 30.625 38.7917H18.375C15.4877 38.7917 14.044 38.7917 13.147 37.8948C12.25 36.9977 12.25 35.554 12.25 32.6667V24.5Z" stroke="#10BF62" stroke-width="2"/>
<path id="Vector_3" d="M14.2917 12.25H24.5" stroke="#10BF62" stroke-width="2" stroke-linecap="round"/>
</g>
</svg>
