<svg width="26" height="26" viewBox="0 0 26 26" fill="none" xmlns="http://www.w3.org/2000/svg">
<g id="instagram-1-svgrepo-com 1">
<path id="Vector" d="M19.5 1.625H6.5C3.80761 1.625 1.625 3.80761 1.625 6.5V19.5C1.625 22.1924 3.80761 24.375 6.5 24.375H19.5C22.1924 24.375 24.375 22.1924 24.375 19.5V6.5C24.375 3.80761 22.1924 1.625 19.5 1.625Z" fill="url(#paint0_radial_44_387)"/>
<path id="Vector_2" d="M19.5 1.625H6.5C3.80761 1.625 1.625 3.80761 1.625 6.5V19.5C1.625 22.1924 3.80761 24.375 6.5 24.375H19.5C22.1924 24.375 24.375 22.1924 24.375 19.5V6.5C24.375 3.80761 22.1924 1.625 19.5 1.625Z" fill="url(#paint1_radial_44_387)"/>
<path id="Vector_3" d="M19.5 1.625H6.5C3.80761 1.625 1.625 3.80761 1.625 6.5V19.5C1.625 22.1924 3.80761 24.375 6.5 24.375H19.5C22.1924 24.375 24.375 22.1924 24.375 19.5V6.5C24.375 3.80761 22.1924 1.625 19.5 1.625Z" fill="url(#paint2_radial_44_387)"/>
<path id="Vector_4" d="M18.6875 8.53125C18.6875 9.20432 18.1418 9.75 17.4688 9.75C16.7957 9.75 16.25 9.20432 16.25 8.53125C16.25 7.85815 16.7957 7.3125 17.4688 7.3125C18.1418 7.3125 18.6875 7.85815 18.6875 8.53125Z" fill="white"/>
<path id="Vector_5" fill-rule="evenodd" clip-rule="evenodd" d="M13 17.0625C15.2436 17.0625 17.0625 15.2436 17.0625 13C17.0625 10.7564 15.2436 8.9375 13 8.9375C10.7564 8.9375 8.9375 10.7564 8.9375 13C8.9375 15.2436 10.7564 17.0625 13 17.0625ZM13 15.4375C14.3462 15.4375 15.4375 14.3462 15.4375 13C15.4375 11.6538 14.3462 10.5625 13 10.5625C11.6538 10.5625 10.5625 11.6538 10.5625 13C10.5625 14.3462 11.6538 15.4375 13 15.4375Z" fill="white"/>
<path id="Vector_6" fill-rule="evenodd" clip-rule="evenodd" d="M4.875 12.675C4.875 9.94476 4.875 8.57959 5.40634 7.5368C5.87373 6.6195 6.6195 5.87373 7.5368 5.40634C8.57959 4.875 9.94476 4.875 12.675 4.875H13.325C16.0552 4.875 17.4204 4.875 18.4632 5.40634C19.3805 5.87373 20.1263 6.6195 20.5936 7.5368C21.125 8.57959 21.125 9.94476 21.125 12.675V13.325C21.125 16.0552 21.125 17.4204 20.5936 18.4632C20.1263 19.3805 19.3805 20.1263 18.4632 20.5936C17.4204 21.125 16.0552 21.125 13.325 21.125H12.675C9.94476 21.125 8.57959 21.125 7.5368 20.5936C6.6195 20.1263 5.87373 19.3805 5.40634 18.4632C4.875 17.4204 4.875 16.0552 4.875 13.325V12.675ZM12.675 6.5H13.325C14.717 6.5 15.6631 6.50127 16.3945 6.56102C17.107 6.61923 17.4713 6.72473 17.7255 6.85423C18.337 7.16582 18.8342 7.663 19.1457 8.2745C19.2753 8.52865 19.3808 8.89297 19.439 9.60546C19.4987 10.3369 19.5 11.283 19.5 12.675V13.325C19.5 14.717 19.4987 15.6631 19.439 16.3945C19.3808 17.107 19.2753 17.4713 19.1457 17.7255C18.8342 18.337 18.337 18.8342 17.7255 19.1457C17.4713 19.2753 17.107 19.3808 16.3945 19.439C15.6631 19.4987 14.717 19.5 13.325 19.5H12.675C11.283 19.5 10.3369 19.4987 9.60546 19.439C8.89297 19.3808 8.52865 19.2753 8.2745 19.1457C7.663 18.8342 7.16582 18.337 6.85423 17.7255C6.72473 17.4713 6.61923 17.107 6.56102 16.3945C6.50127 15.6631 6.5 14.717 6.5 13.325V12.675C6.5 11.283 6.50127 10.3369 6.56102 9.60546C6.61923 8.89297 6.72473 8.52865 6.85423 8.2745C7.16582 7.663 7.663 7.16582 8.2745 6.85423C8.52865 6.72473 8.89297 6.61923 9.60546 6.56102C10.3369 6.50127 11.283 6.5 12.675 6.5Z" fill="white"/>
</g>
<defs>
<radialGradient id="paint0_radial_44_387" cx="0" cy="0" r="1" gradientUnits="userSpaceOnUse" gradientTransform="translate(9.75 18.6875) rotate(-55.3758) scale(20.7347)">
<stop stop-color="#B13589"/>
<stop offset="0.79309" stop-color="#C62F94"/>
<stop offset="1" stop-color="#8A3AC8"/>
</radialGradient>
<radialGradient id="paint1_radial_44_387" cx="0" cy="0" r="1" gradientUnits="userSpaceOnUse" gradientTransform="translate(8.9375 25.1875) rotate(-65.1363) scale(18.3578)">
<stop stop-color="#E0E8B7"/>
<stop offset="0.444662" stop-color="#FB8A2E"/>
<stop offset="0.71474" stop-color="#E2425C"/>
<stop offset="1" stop-color="#E2425C" stop-opacity="0"/>
</radialGradient>
<radialGradient id="paint2_radial_44_387" cx="0" cy="0" r="1" gradientUnits="userSpaceOnUse" gradientTransform="translate(0.40625 2.4375) rotate(-8.1301) scale(31.5989 6.75867)">
<stop offset="0.156701" stop-color="#406ADC"/>
<stop offset="0.467799" stop-color="#6A45BE"/>
<stop offset="1" stop-color="#6A45BE" stop-opacity="0"/>
</radialGradient>
</defs>
</svg>
