<svg width="26" height="26" viewBox="0 0 26 26" fill="none" xmlns="http://www.w3.org/2000/svg">
<g id="linkedin-color-svgrepo-com 1" clip-path="url(#clip0_75_61)">
<g id="Icons">
<g id="Color-">
<path id="LinkedIn" fill-rule="evenodd" clip-rule="evenodd" d="M26 24.8182H20.2536V16.5091C20.2536 14.3342 19.3548 12.8495 17.3782 12.8495C15.8663 12.8495 15.0255 13.8514 14.6342 14.817C14.4874 15.1636 14.5103 15.6464 14.5103 16.1292V24.8182H8.81751C8.81751 24.8182 8.89088 10.0994 8.81751 8.76151H14.5103V11.2815C14.8467 10.1797 16.6658 8.60713 19.5688 8.60713C23.1704 8.60713 26 10.9167 26 15.8901V24.8182ZM3.06044 6.75309H3.02376C1.18933 6.75309 0 5.52563 0 3.96975C0 2.3836 1.22448 1.18188 3.0956 1.18188C4.96519 1.18188 6.11477 2.38059 6.15146 3.96522C6.15146 5.5211 4.96519 6.75309 3.06044 6.75309ZM0.655792 8.76151H5.72342V24.8182H0.655792V8.76151Z" fill="#007EBB"/>
</g>
</g>
</g>
<defs>
<clipPath id="clip0_75_61">
<rect width="26" height="26" fill="white"/>
</clipPath>
</defs>
</svg>
