<svg width="30" height="30" viewBox="0 0 30 30" fill="none" xmlns="http://www.w3.org/2000/svg">
<g id="li:home">
<path id="Vector (Stroke)" fill-rule="evenodd" clip-rule="evenodd" d="M14.2326 1.51331C14.684 1.16223 15.316 1.16223 15.7674 1.51331L27.0174 10.2633C27.3219 10.5001 27.5 10.8643 27.5 11.25V25C27.5 25.9946 27.1049 26.9484 26.4017 27.6517C25.6984 28.3549 24.7446 28.75 23.75 28.75H6.25C5.25544 28.75 4.30161 28.3549 3.59835 27.6517C2.89509 26.9484 2.5 25.9946 2.5 25V11.25C2.5 10.8643 2.67809 10.5001 2.98257 10.2633L14.2326 1.51331ZM5 11.8614V25C5 25.3315 5.1317 25.6495 5.36612 25.8839C5.60054 26.1183 5.91848 26.25 6.25 26.25H23.75C24.0815 26.25 24.3995 26.1183 24.6339 25.8839C24.8683 25.6495 25 25.3315 25 25V11.8614L15 4.08358L5 11.8614Z" fill="#10BF62"/>
<path id="Vector (Stroke)_2" fill-rule="evenodd" clip-rule="evenodd" d="M10 15C10 14.3096 10.5596 13.75 11.25 13.75H18.75C19.4404 13.75 20 14.3096 20 15V27.5C20 28.1904 19.4404 28.75 18.75 28.75C18.0596 28.75 17.5 28.1904 17.5 27.5V16.25H12.5V27.5C12.5 28.1904 11.9404 28.75 11.25 28.75C10.5596 28.75 10 28.1904 10 27.5V15Z" fill="#10BF62"/>
</g>
</svg>
