<svg width="30" height="30" viewBox="0 0 30 30" fill="none" xmlns="http://www.w3.org/2000/svg">
<g id="li:file-text">
<path id="Vector (Stroke)" fill-rule="evenodd" clip-rule="evenodd" d="M4.84835 2.34835C5.55161 1.64509 6.50544 1.25 7.5 1.25H18.125C18.4565 1.25 18.7745 1.3817 19.0089 1.61612L25.8839 8.49112C26.1183 8.72554 26.25 9.04348 26.25 9.375V25C26.25 25.9946 25.8549 26.9484 25.1517 27.6517C24.4484 28.3549 23.4946 28.75 22.5 28.75H7.5C6.50544 28.75 5.55161 28.3549 4.84835 27.6517C4.14509 26.9484 3.75 25.9946 3.75 25V5C3.75 4.00544 4.14509 3.05161 4.84835 2.34835ZM7.5 3.75C7.16848 3.75 6.85054 3.8817 6.61612 4.11612C6.3817 4.35054 6.25 4.66848 6.25 5V25C6.25 25.3315 6.3817 25.6495 6.61612 25.8839C6.85054 26.1183 7.16848 26.25 7.5 26.25H22.5C22.8315 26.25 23.1495 26.1183 23.3839 25.8839C23.6183 25.6495 23.75 25.3315 23.75 25V9.89277L17.6072 3.75H7.5Z" fill="#7F8493"/>
<path id="Vector (Stroke)_2" fill-rule="evenodd" clip-rule="evenodd" d="M17.5 1.25C18.1904 1.25 18.75 1.80964 18.75 2.5V8.75H25C25.6904 8.75 26.25 9.30964 26.25 10C26.25 10.6904 25.6904 11.25 25 11.25H17.5C16.8096 11.25 16.25 10.6904 16.25 10V2.5C16.25 1.80964 16.8096 1.25 17.5 1.25Z" fill="#7F8493"/>
<path id="Vector (Stroke)_3" fill-rule="evenodd" clip-rule="evenodd" d="M8.75 16.25C8.75 15.5596 9.30964 15 10 15H20C20.6904 15 21.25 15.5596 21.25 16.25C21.25 16.9404 20.6904 17.5 20 17.5H10C9.30964 17.5 8.75 16.9404 8.75 16.25Z" fill="#7F8493"/>
<path id="Vector (Stroke)_4" fill-rule="evenodd" clip-rule="evenodd" d="M8.75 21.25C8.75 20.5596 9.30964 20 10 20H20C20.6904 20 21.25 20.5596 21.25 21.25C21.25 21.9404 20.6904 22.5 20 22.5H10C9.30964 22.5 8.75 21.9404 8.75 21.25Z" fill="#7F8493"/>
<path id="Vector (Stroke)_5" fill-rule="evenodd" clip-rule="evenodd" d="M8.75 11.25C8.75 10.5596 9.30964 10 10 10H12.5C13.1904 10 13.75 10.5596 13.75 11.25C13.75 11.9404 13.1904 12.5 12.5 12.5H10C9.30964 12.5 8.75 11.9404 8.75 11.25Z" fill="#7F8493"/>
</g>
</svg>
