<svg width="30" height="30" viewBox="0 0 30 30" fill="none" xmlns="http://www.w3.org/2000/svg">
<g id="li:layout-list">
<path id="Vector (Stroke)" fill-rule="evenodd" clip-rule="evenodd" d="M2.5 17.5C2.5 16.8096 3.05964 16.25 3.75 16.25H12.5C13.1904 16.25 13.75 16.8096 13.75 17.5V26.25C13.75 26.9404 13.1904 27.5 12.5 27.5H3.75C3.05964 27.5 2.5 26.9404 2.5 26.25V17.5ZM5 18.75V25H11.25V18.75H5Z" fill="#7F8493"/>
<path id="Vector (Stroke)_2" fill-rule="evenodd" clip-rule="evenodd" d="M2.5 3.75C2.5 3.05964 3.05964 2.5 3.75 2.5H12.5C13.1904 2.5 13.75 3.05964 13.75 3.75V12.5C13.75 13.1904 13.1904 13.75 12.5 13.75H3.75C3.05964 13.75 2.5 13.1904 2.5 12.5V3.75ZM5 5V11.25H11.25V5H5Z" fill="#7F8493"/>
<path id="Vector (Stroke)_3" fill-rule="evenodd" clip-rule="evenodd" d="M16.25 5C16.25 4.30964 16.8096 3.75 17.5 3.75H26.25C26.9404 3.75 27.5 4.30964 27.5 5C27.5 5.69036 26.9404 6.25 26.25 6.25H17.5C16.8096 6.25 16.25 5.69036 16.25 5Z" fill="#7F8493"/>
<path id="Vector (Stroke)_4" fill-rule="evenodd" clip-rule="evenodd" d="M16.25 11.25C16.25 10.5596 16.8096 10 17.5 10H26.25C26.9404 10 27.5 10.5596 27.5 11.25C27.5 11.9404 26.9404 12.5 26.25 12.5H17.5C16.8096 12.5 16.25 11.9404 16.25 11.25Z" fill="#7F8493"/>
<path id="Vector (Stroke)_5" fill-rule="evenodd" clip-rule="evenodd" d="M16.25 18.75C16.25 18.0596 16.8096 17.5 17.5 17.5H26.25C26.9404 17.5 27.5 18.0596 27.5 18.75C27.5 19.4404 26.9404 20 26.25 20H17.5C16.8096 20 16.25 19.4404 16.25 18.75Z" fill="#7F8493"/>
<path id="Vector (Stroke)_6" fill-rule="evenodd" clip-rule="evenodd" d="M16.25 25C16.25 24.3096 16.8096 23.75 17.5 23.75H26.25C26.9404 23.75 27.5 24.3096 27.5 25C27.5 25.6904 26.9404 26.25 26.25 26.25H17.5C16.8096 26.25 16.25 25.6904 16.25 25Z" fill="#7F8493"/>
</g>
</svg>
