<svg width="30" height="30" viewBox="0 0 30 30" fill="none" xmlns="http://www.w3.org/2000/svg">
<g id="li:pen-tool">
<path id="Vector (Stroke)" fill-rule="evenodd" clip-rule="evenodd" d="M22.8661 14.1161C23.3543 13.628 24.1457 13.628 24.6339 14.1161L28.3839 17.8661C28.872 18.3543 28.872 19.1457 28.3839 19.6339L19.6339 28.3839C19.1457 28.872 18.3543 28.872 17.8661 28.3839L14.1161 24.6339C13.628 24.1457 13.628 23.3543 14.1161 22.8661L22.8661 14.1161ZM16.7678 23.75L18.75 25.7322L25.7322 18.75L23.75 16.7678L16.7678 23.75Z" fill="#7F8493"/>
<path id="Vector (Stroke)_2" fill-rule="evenodd" clip-rule="evenodd" d="M1.61614 1.61614C1.92406 1.30823 2.37003 1.18275 2.79333 1.28492L20.9183 5.65992C21.3915 5.77413 21.7553 6.1526 21.8507 6.62988L23.7257 16.0049C23.8077 16.4147 23.6794 16.8384 23.3839 17.1339L17.1339 23.3839C16.8384 23.6794 16.4147 23.8077 16.0049 23.7257L6.62988 21.8507C6.1526 21.7553 5.77413 21.3915 5.65992 20.9183L1.28492 2.79333C1.18275 2.37003 1.30823 1.92406 1.61614 1.61614ZM4.19507 4.19507L7.90284 19.5558L15.8392 21.1431L21.1431 15.8392L19.5558 7.90284L4.19507 4.19507Z" fill="#7F8493"/>
<path id="Vector (Stroke)_3" fill-rule="evenodd" clip-rule="evenodd" d="M1.61612 1.61612C2.10427 1.12796 2.89573 1.12796 3.38388 1.61612L12.8664 11.0986C13.3545 11.5868 13.3545 12.3782 12.8664 12.8664C12.3782 13.3545 11.5868 13.3545 11.0986 12.8664L1.61612 3.38388C1.12796 2.89573 1.12796 2.10427 1.61612 1.61612Z" fill="#7F8493"/>
<path id="Vector (Stroke)_4" fill-rule="evenodd" clip-rule="evenodd" d="M13.75 12.5C13.0596 12.5 12.5 13.0596 12.5 13.75C12.5 14.4404 13.0596 15 13.75 15C14.4404 15 15 14.4404 15 13.75C15 13.0596 14.4404 12.5 13.75 12.5ZM10 13.75C10 11.6789 11.6789 10 13.75 10C15.8211 10 17.5 11.6789 17.5 13.75C17.5 15.8211 15.8211 17.5 13.75 17.5C11.6789 17.5 10 15.8211 10 13.75Z" fill="#7F8493"/>
</g>
</svg>
