<svg width="30" height="30" viewBox="0 0 30 30" fill="none" xmlns="http://www.w3.org/2000/svg">
<g id="li:layout-grid">
<path id="Vector (Stroke)" fill-rule="evenodd" clip-rule="evenodd" d="M2.5 3.75C2.5 3.05964 3.05964 2.5 3.75 2.5H12.5C13.1904 2.5 13.75 3.05964 13.75 3.75V12.5C13.75 13.1904 13.1904 13.75 12.5 13.75H3.75C3.05964 13.75 2.5 13.1904 2.5 12.5V3.75ZM5 5V11.25H11.25V5H5Z" fill="#7F8493"/>
<path id="Vector (Stroke)_2" fill-rule="evenodd" clip-rule="evenodd" d="M16.25 3.75C16.25 3.05964 16.8096 2.5 17.5 2.5H26.25C26.9404 2.5 27.5 3.05964 27.5 3.75V12.5C27.5 13.1904 26.9404 13.75 26.25 13.75H17.5C16.8096 13.75 16.25 13.1904 16.25 12.5V3.75ZM18.75 5V11.25H25V5H18.75Z" fill="#7F8493"/>
<path id="Vector (Stroke)_3" fill-rule="evenodd" clip-rule="evenodd" d="M16.25 17.5C16.25 16.8096 16.8096 16.25 17.5 16.25H26.25C26.9404 16.25 27.5 16.8096 27.5 17.5V26.25C27.5 26.9404 26.9404 27.5 26.25 27.5H17.5C16.8096 27.5 16.25 26.9404 16.25 26.25V17.5ZM18.75 18.75V25H25V18.75H18.75Z" fill="#7F8493"/>
<path id="Vector (Stroke)_4" fill-rule="evenodd" clip-rule="evenodd" d="M2.5 17.5C2.5 16.8096 3.05964 16.25 3.75 16.25H12.5C13.1904 16.25 13.75 16.8096 13.75 17.5V26.25C13.75 26.9404 13.1904 27.5 12.5 27.5H3.75C3.05964 27.5 2.5 26.9404 2.5 26.25V17.5ZM5 18.75V25H11.25V18.75H5Z" fill="#7F8493"/>
</g>
</svg>
