<svg width="30" height="30" viewBox="0 0 30 30" fill="none" xmlns="http://www.w3.org/2000/svg">
<g id="li:message-square">
<path id="Vector (Stroke)" fill-rule="evenodd" clip-rule="evenodd" d="M6.25 5C5.91848 5 5.60054 5.1317 5.36612 5.36612C5.1317 5.60054 5 5.91848 5 6.25V23.2322L7.86612 20.3661C8.10054 20.1317 8.41848 20 8.75 20H23.75C24.0815 20 24.3995 19.8683 24.6339 19.6339C24.8683 19.3995 25 19.0815 25 18.75V6.25C25 5.91848 24.8683 5.60054 24.6339 5.36612C24.3995 5.1317 24.0815 5 23.75 5H6.25ZM3.59835 3.59835C4.30161 2.89509 5.25544 2.5 6.25 2.5H23.75C24.7446 2.5 25.6984 2.89509 26.4017 3.59835C27.1049 4.30161 27.5 5.25544 27.5 6.25V18.75C27.5 19.7446 27.1049 20.6984 26.4017 21.4016C25.6984 22.1049 24.7446 22.5 23.75 22.5H9.26777L4.63388 27.1339C4.27639 27.4914 3.73874 27.5983 3.27165 27.4049C2.80455 27.2114 2.5 26.7556 2.5 26.25V6.25C2.5 5.25544 2.89509 4.30161 3.59835 3.59835Z" fill="#7F8493"/>
</g>
</svg>
