<svg width="30" height="30" viewBox="0 0 30 30" fill="none" xmlns="http://www.w3.org/2000/svg">
<g id="li:mail">
<path id="Vector (Stroke)" fill-rule="evenodd" clip-rule="evenodd" d="M5 6.25C4.31536 6.25 3.75 6.81536 3.75 7.5V22.5C3.75 23.1846 4.31536 23.75 5 23.75H25C25.6846 23.75 26.25 23.1846 26.25 22.5V7.5C26.25 6.81536 25.6846 6.25 25 6.25H5ZM1.25 7.5C1.25 5.43464 2.93464 3.75 5 3.75H25C27.0654 3.75 28.75 5.43464 28.75 7.5V22.5C28.75 24.5654 27.0654 26.25 25 26.25H5C2.93464 26.25 1.25 24.5654 1.25 22.5V7.5Z" fill="#7F8493"/>
<path id="Vector (Stroke)_2" fill-rule="evenodd" clip-rule="evenodd" d="M1.47595 6.78328C1.87184 6.21772 2.65125 6.08017 3.21681 6.47607L15 14.7243L26.7832 6.47607C27.3487 6.08017 28.1281 6.21772 28.524 6.78328C28.9199 7.34884 28.7824 8.12825 28.2168 8.52415L15.7168 17.2741C15.2864 17.5754 14.7136 17.5754 14.2832 17.2741L1.78316 8.52415C1.2176 8.12825 1.08005 7.34884 1.47595 6.78328Z" fill="#7F8493"/>
</g>
</svg>
