<svg width="105" height="105" viewBox="0 0 105 105" fill="none" xmlns="http://www.w3.org/2000/svg">
<g id="adobe-photoshop-svgrepo-com 1">
<path id="Vector" d="M6.5625 39.8124C6.5625 28.1739 6.5625 22.3546 8.82751 17.9093C10.8199 13.999 13.999 10.8199 17.9093 8.82751C22.3546 6.5625 28.1739 6.5625 39.8124 6.5625H65.1876C76.8262 6.5625 82.6455 6.5625 87.0906 8.82751C91.0009 10.8199 94.1801 13.999 96.1725 17.9093C98.4375 22.3546 98.4375 28.1739 98.4375 39.8124V65.1876C98.4375 76.8262 98.4375 82.6455 96.1725 87.0906C94.1801 91.0009 91.0009 94.1801 87.0906 96.1725C82.6455 98.4375 76.8262 98.4375 65.1876 98.4375H39.8124C28.1739 98.4375 22.3546 98.4375 17.9093 96.1725C13.999 94.1801 10.8199 91.0009 8.82751 87.0906C6.5625 82.6455 6.5625 76.8262 6.5625 65.1876V39.8124Z" fill="#001E36"/>
<path id="Vector_2" d="M26.25 73.8813V33.4799C26.25 33.2053 26.3648 33.0481 26.6328 33.0481C30.5888 33.0481 34.543 32.8125 38.4999 32.8125C44.921 32.8125 51.8733 35.008 54.3103 41.725C54.8845 43.3742 55.1906 45.0624 55.1906 46.8293C55.1906 50.2061 54.4251 52.9935 52.8938 55.1923C48.6163 61.3341 41.2027 61.2386 34.5571 61.2386V73.8422C34.609 74.2153 34.291 74.3918 33.9829 74.3918H26.7094C26.4031 74.3918 26.25 74.2347 26.25 73.8813ZM34.5952 40.6258V53.8181C37.2304 54.011 39.9876 54.032 42.5194 53.19C45.3147 52.3835 46.8454 49.9643 46.8454 47.0649C46.9229 44.5945 45.5769 42.2241 43.2853 41.3326C40.784 40.2924 37.2953 40.2301 34.5952 40.6258Z" fill="#31A8FF"/>
<path id="Vector_3" d="M79.0673 51.2118C77.909 50.6011 76.6753 50.1545 75.3998 49.8842C73.7612 49.4986 67.2978 48.1481 67.2952 51.5277C67.3526 53.4145 70.3477 54.3388 71.671 54.8779C76.3169 56.4729 81.5742 59.324 81.4708 65.0554C81.6129 72.1901 74.7 75.0425 68.7743 75.0432C65.6896 75.075 62.476 74.5972 59.6528 73.2729C59.3831 73.1302 59.2098 72.8254 59.2213 72.5143V65.6873C59.1908 65.4137 59.4848 65.1745 59.7145 65.3713C62.4806 67.0441 65.7592 67.8566 68.9594 67.8999C70.372 67.8999 73.1715 67.763 73.1505 65.6873C73.1505 63.6956 69.8014 62.7798 68.4662 62.2738C66.5309 61.5831 64.6961 60.626 63.0118 59.4293C60.6578 57.7503 59.1813 55.0584 59.2213 52.0967C59.2075 45.3787 65.5709 42.3632 71.3016 42.3619C73.9804 42.3396 76.8574 42.5381 79.3511 43.6262C79.7098 43.7315 79.7839 44.1095 79.7826 44.4478V50.8325C79.8052 51.2288 79.3652 51.3637 79.0673 51.2118Z" fill="#31A8FF"/>
</g>
</svg>
