<svg width="122" height="20" viewBox="0 0 122 20" fill="none" xmlns="http://www.w3.org/2000/svg">
<g clip-path="url(#clip0_44_240)">
<path d="M19.7507 7.72085C19.6771 7.50107 19.4867 7.34094 19.2576 7.3057L13.1759 6.37648L10.451 0.571798C10.349 0.354795 10.1308 0.216309 9.89122 0.216309C9.65165 0.216309 9.43372 0.354795 9.3314 0.571798L6.60649 6.37648L0.524835 7.30601C0.295776 7.34094 0.105666 7.50138 0.0317858 7.72116C-0.0417851 7.94064 0.0135476 8.18299 0.175527 8.34899L4.59411 12.8798L3.5499 19.2798C3.51157 19.5135 3.61018 19.7488 3.804 19.8848C3.91033 19.9599 4.03491 19.9979 4.1598 19.9979C4.26242 19.9979 4.36567 19.972 4.45903 19.9206L9.89091 16.9163L15.3228 19.9206C15.4161 19.972 15.5194 19.9979 15.622 19.9979C15.7469 19.9979 15.8718 19.9599 15.9778 19.8848C16.1716 19.7488 16.2703 19.5135 16.2319 19.2798L15.1877 12.8798L19.6063 8.34899C19.7686 8.18268 19.8242 7.94033 19.7507 7.72085Z" fill="#FFAC2D"/>
</g>
<g clip-path="url(#clip1_44_240)">
<path d="M45.3047 7.72085C45.2312 7.50107 45.0407 7.34094 44.8117 7.3057L38.73 6.37648L36.0051 0.571798C35.9031 0.354795 35.6849 0.216309 35.4453 0.216309C35.2057 0.216309 34.9878 0.354795 34.8855 0.571798L32.1606 6.37648L26.0789 7.30601C25.8499 7.34094 25.6597 7.50138 25.5859 7.72116C25.5123 7.94064 25.5676 8.18299 25.7296 8.34899L30.1482 12.8798L29.104 19.2798C29.0656 19.5135 29.1643 19.7488 29.3581 19.8848C29.4644 19.9599 29.589 19.9979 29.7139 19.9979C29.8165 19.9979 29.9197 19.972 30.0131 19.9206L35.445 16.9163L40.8769 19.9206C40.9702 19.972 41.0735 19.9979 41.1761 19.9979C41.301 19.9979 41.4259 19.9599 41.5319 19.8848C41.7257 19.7488 41.8243 19.5135 41.786 19.2798L40.7418 12.8798L45.1604 8.34899C45.3227 8.18268 45.3783 7.94033 45.3047 7.72085Z" fill="#FFAC2D"/>
</g>
<g clip-path="url(#clip2_44_240)">
<path d="M70.8587 7.72085C70.7852 7.50107 70.5948 7.34094 70.3657 7.3057L64.284 6.37648L61.5591 0.571798C61.4571 0.354795 61.2389 0.216309 60.9993 0.216309C60.7597 0.216309 60.5418 0.354795 60.4395 0.571798L57.7146 6.37648L51.6329 7.30601C51.4039 7.34094 51.2138 7.50138 51.1399 7.72116C51.0663 7.94064 51.1216 8.18299 51.2836 8.34899L55.7022 12.8798L54.658 19.2798C54.6197 19.5135 54.7183 19.7488 54.9121 19.8848C55.0184 19.9599 55.143 19.9979 55.2679 19.9979C55.3705 19.9979 55.4738 19.972 55.5671 19.9206L60.999 16.9163L66.4309 19.9206C66.5242 19.972 66.6275 19.9979 66.7301 19.9979C66.855 19.9979 66.9799 19.9599 67.0859 19.8848C67.2797 19.7488 67.3783 19.5135 67.34 19.2798L66.2958 12.8798L70.7144 8.34899C70.8767 8.18268 70.9323 7.94033 70.8587 7.72085Z" fill="#FFAC2D"/>
</g>
<g clip-path="url(#clip3_44_240)">
<path d="M96.4128 7.72085C96.3393 7.50107 96.1488 7.34094 95.9198 7.3057L89.8381 6.37648L87.1132 0.571798C87.0112 0.354795 86.793 0.216309 86.5534 0.216309C86.3138 0.216309 86.0959 0.354795 85.9936 0.571798L83.2687 6.37648L77.187 7.30601C76.9579 7.34094 76.7678 7.50138 76.694 7.72116C76.6204 7.94064 76.6757 8.18299 76.8377 8.34899L81.2563 12.8798L80.2121 19.2798C80.1737 19.5135 80.2723 19.7488 80.4662 19.8848C80.5725 19.9599 80.6971 19.9979 80.822 19.9979C80.9246 19.9979 81.0278 19.972 81.1212 19.9206L86.5531 16.9163L91.985 19.9206C92.0783 19.972 92.1816 19.9979 92.2842 19.9979C92.4091 19.9979 92.534 19.9599 92.64 19.8848C92.8338 19.7488 92.9324 19.5135 92.8941 19.2798L91.8499 12.8798L96.2685 8.34899C96.4308 8.18268 96.4864 7.94033 96.4128 7.72085Z" fill="#FFAC2D"/>
</g>
<g clip-path="url(#clip4_44_240)">
<path d="M121.967 7.72085C121.893 7.50107 121.703 7.34094 121.474 7.3057L115.392 6.37648L112.667 0.571798C112.565 0.354795 112.347 0.216309 112.107 0.216309C111.868 0.216309 111.65 0.354795 111.548 0.571798L108.823 6.37648L102.741 7.30601C102.512 7.34094 102.322 7.50138 102.248 7.72116C102.174 7.94064 102.23 8.18299 102.392 8.34899L106.81 12.8798L105.766 19.2798C105.728 19.5135 105.826 19.7488 106.02 19.8848C106.127 19.9599 106.251 19.9979 106.376 19.9979C106.479 19.9979 106.582 19.972 106.675 19.9206L112.107 16.9163L117.539 19.9206C117.632 19.972 117.736 19.9979 117.838 19.9979C117.963 19.9979 118.088 19.9599 118.194 19.8848C118.388 19.7488 118.486 19.5135 118.448 19.2798L117.404 12.8798L121.822 8.34899C121.985 8.18268 122.04 7.94033 121.967 7.72085Z" fill="#FFAC2D"/>
</g>
<defs>
<clipPath id="clip0_44_240">
<rect width="19.7838" height="19.7838" fill="white" transform="translate(0 0.216309)"/>
</clipPath>
<clipPath id="clip1_44_240">
<rect width="19.7838" height="19.7838" fill="white" transform="translate(25.5541 0.216309)"/>
</clipPath>
<clipPath id="clip2_44_240">
<rect width="19.7838" height="19.7838" fill="white" transform="translate(51.1081 0.216309)"/>
</clipPath>
<clipPath id="clip3_44_240">
<rect width="19.7838" height="19.7838" fill="white" transform="translate(76.6622 0.216309)"/>
</clipPath>
<clipPath id="clip4_44_240">
<rect width="19.7838" height="19.7838" fill="white" transform="translate(102.216 0.216309)"/>
</clipPath>
</defs>
</svg>
