<svg width="26" height="26" viewBox="0 0 26 26" fill="none" xmlns="http://www.w3.org/2000/svg">
<g id="upwork-svgrepo-com 1" clip-path="url(#clip0_6_285)">
<path id="Vector" d="M20.1094 14.2528C18.9158 14.2528 17.7946 13.749 16.7789 12.9243L17.0243 11.7608L17.0324 11.7145C17.2567 10.4787 17.9506 8.40113 20.1086 8.40113C21.7254 8.40113 23.0368 9.71332 23.0368 11.3294C23.0368 12.9414 21.7246 14.2536 20.1086 14.2536L20.1094 14.2528ZM20.1094 5.43794C17.3591 5.43794 15.2214 7.22382 14.3544 10.1651C13.0341 8.18013 12.0266 5.79382 11.4432 3.78369H8.48088V11.4894C8.47681 13.0129 7.24506 14.2446 5.72162 14.2487C4.19819 14.2446 2.96644 13.0088 2.96237 11.4894V3.78369H0V11.4894C0 14.646 2.56831 17.2322 5.72162 17.2322C8.87819 17.2322 11.4432 14.6468 11.4432 11.4894V10.1984C12.0185 11.396 12.7254 12.6148 13.5842 13.6897L11.7691 22.2169H14.7989L16.1151 16.0297C17.2664 16.7658 18.5908 17.2314 20.1102 17.2314C23.3602 17.2314 26.0008 14.5737 26.0008 11.3278C26.0008 8.07775 23.3602 5.43713 20.1102 5.43713L20.1094 5.43794Z" fill="#6FDA44"/>
</g>
<defs>
<clipPath id="clip0_6_285">
<rect width="26" height="26" fill="white"/>
</clipPath>
</defs>
</svg>
