<svg width="105" height="105" viewBox="0 0 105 105" fill="none" xmlns="http://www.w3.org/2000/svg">
<g id="adobe-xd-svgrepo-com 1">
<path id="Vector" d="M6.5625 39.8124C6.5625 28.1739 6.5625 22.3546 8.82751 17.9093C10.8199 13.999 13.999 10.8199 17.9093 8.82751C22.3546 6.5625 28.1739 6.5625 39.8124 6.5625H65.1876C76.8262 6.5625 82.6455 6.5625 87.0906 8.82751C91.0009 10.8199 94.1801 13.999 96.1725 17.9093C98.4375 22.3546 98.4375 28.1739 98.4375 39.8124V65.1876C98.4375 76.8262 98.4375 82.6455 96.1725 87.0906C94.1801 91.0009 91.0009 94.1801 87.0906 96.1725C82.6455 98.4375 76.8262 98.4375 65.1876 98.4375H39.8124C28.1739 98.4375 22.3546 98.4375 17.9093 96.1725C13.999 94.1801 10.8199 91.0009 8.82751 87.0906C6.5625 82.6455 6.5625 76.8262 6.5625 65.1876V39.8124Z" fill="#470137"/>
<path id="Vector_2" d="M54.6213 33.5797L43.1576 52.9863L55.4223 73.5935C55.6772 74.0608 55.4223 74.1641 55.0528 74.1641H46.3011C45.6845 74.1641 45.253 74.1418 45.0066 73.7202C44.184 72.0766 43.3624 70.4435 42.5411 68.8209C41.7188 67.199 40.8457 65.5449 39.922 63.8587C38.9973 62.1738 38.0832 60.4672 37.1792 58.7386C36.3569 60.4245 35.4424 62.1101 34.5598 63.7957C33.6758 65.4816 32.8027 67.1567 31.9404 68.8209C31.0776 70.4862 30.1942 72.1403 29.2902 73.7832C29.1256 74.1625 28.8375 74.2015 28.4272 74.2015H19.9837C19.6519 74.2015 19.6119 73.9522 19.7988 73.6568L31.6938 53.6182L20.1068 33.5163C19.8964 33.2295 20.0775 32.9241 20.4151 32.9474H29.1052C29.4815 32.9264 29.814 33.0681 30.0297 33.39C30.7693 35.0759 31.5911 36.7618 32.495 38.4471C33.3982 40.133 34.3127 41.7979 35.2377 43.4408C36.1623 45.0844 37.0765 46.749 37.8571 48.4349C38.6784 46.7073 39.5105 45.0217 40.3531 43.3778C41.1951 41.7342 42.0577 40.0801 42.9417 38.4156C43.825 36.7513 44.6775 35.0972 45.4995 33.4533C45.6087 33.0927 45.8699 32.91 46.239 32.9474H54.3129C54.6213 32.9474 54.7486 33.3683 54.6213 33.5797Z" fill="#FF61F6"/>
<path id="Vector_3" d="M72.3092 74.9848C66.8738 75.0698 61.1806 72.8316 58.3186 67.8733C56.9215 65.4928 56.2229 62.5114 56.2232 58.9286C56.1999 56.0273 56.9228 53.171 58.3186 50.6477C61.9205 44.2093 69.1766 41.7969 76.0689 42.4302V29.977C76.0689 29.6827 76.1923 29.5346 76.4387 29.5346H84.2044C84.4167 29.5035 84.6044 29.6961 84.5742 29.9138V67.2728C84.5742 68.814 84.7271 70.35 84.821 71.8873C84.8361 72.1498 84.6841 72.4096 84.4508 72.5196C80.6141 74.1608 76.4623 74.9657 72.3092 74.9848ZM76.0689 67.1462V49.8891C70.4396 48.3253 64.9743 52.6129 64.975 58.5493C64.8414 64.6869 70.1321 68.9273 76.0689 67.1462Z" fill="#FF61F6"/>
</g>
</svg>
